<mxfile host="app.diagrams.net" agent="Mozilla/5.0 (Macintosh; Intel Mac OS X 10_15_7) AppleWebKit/537.36 (KHTML, like Gecko) Chrome/128.0.0.0 Safari/537.36" version="24.7.16">
  <diagram name="Page-1" id="74e2e168-ea6b-b213-b513-2b3c1d86103e">
    <mxGraphModel dx="1985" dy="1191" grid="1" gridSize="10" guides="1" tooltips="1" connect="1" arrows="1" fold="1" page="1" pageScale="1" pageWidth="1100" pageHeight="850" background="none" math="0" shadow="0">
      <root>
        <mxCell id="0" />
        <mxCell id="1" parent="0" />
        <mxCell id="77e6c97f196da883-1" value="60岁以上过期问卷待办外呼流程" style="swimlane;html=1;childLayout=stackLayout;startSize=20;rounded=0;shadow=0;labelBackgroundColor=none;strokeWidth=1;fontFamily=Verdana;fontSize=8;align=center;" parent="1" vertex="1">
          <mxGeometry x="300" y="40" width="480" height="770" as="geometry" />
        </mxCell>
        <mxCell id="77e6c97f196da883-2" value="随访-服务端" style="swimlane;html=1;startSize=20;fontFamily=Architects Daughter;fontSource=https%3A%2F%2Ffonts.googleapis.com%2Fcss%3Ffamily%3DArchitects%2BDaughter;" parent="77e6c97f196da883-1" vertex="1">
          <mxGeometry y="20" width="160" height="750" as="geometry" />
        </mxCell>
        <mxCell id="QBesqkJT4bfm6jJ09nvZ-1" style="edgeStyle=orthogonalEdgeStyle;rounded=0;sketch=1;hachureGap=4;jiggle=2;curveFitting=1;orthogonalLoop=1;jettySize=auto;html=1;exitX=0.5;exitY=1;exitDx=0;exitDy=0;entryX=0.5;entryY=0;entryDx=0;entryDy=0;fontFamily=Architects Daughter;fontSource=https%3A%2F%2Ffonts.googleapis.com%2Fcss%3Ffamily%3DArchitects%2BDaughter;" parent="77e6c97f196da883-2" source="QBesqkJT4bfm6jJ09nvZ-13" target="QBesqkJT4bfm6jJ09nvZ-3" edge="1">
          <mxGeometry relative="1" as="geometry">
            <mxPoint x="80" y="125" as="sourcePoint" />
            <mxPoint x="70" y="155" as="targetPoint" />
          </mxGeometry>
        </mxCell>
        <mxCell id="QBesqkJT4bfm6jJ09nvZ-3" value="满六十岁&lt;div&gt;命中话术&lt;/div&gt;" style="rhombus;whiteSpace=wrap;html=1;sketch=1;hachureGap=4;jiggle=2;curveFitting=1;fontFamily=Architects Daughter;fontSource=https%3A%2F%2Ffonts.googleapis.com%2Fcss%3Ffamily%3DArchitects%2BDaughter;" parent="77e6c97f196da883-2" vertex="1">
          <mxGeometry x="30" y="160" width="100" height="80" as="geometry" />
        </mxCell>
        <mxCell id="QBesqkJT4bfm6jJ09nvZ-5" value="外呼事件持久化" style="shape=cylinder3;whiteSpace=wrap;html=1;boundedLbl=1;backgroundOutline=1;size=15;sketch=1;hachureGap=4;jiggle=2;curveFitting=1;fontFamily=Architects Daughter;fontSource=https%3A%2F%2Ffonts.googleapis.com%2Fcss%3Ffamily%3DArchitects%2BDaughter;" parent="77e6c97f196da883-2" vertex="1">
          <mxGeometry x="50" y="325" width="60" height="80" as="geometry" />
        </mxCell>
        <mxCell id="QBesqkJT4bfm6jJ09nvZ-13" value="&lt;span style=&quot;font-size: 8px;&quot;&gt;待办过期定时任务&lt;/span&gt;" style="rounded=1;whiteSpace=wrap;html=1;sketch=1;hachureGap=4;jiggle=2;curveFitting=1;fontFamily=Architects Daughter;fontSource=https%3A%2F%2Ffonts.googleapis.com%2Fcss%3Ffamily%3DArchitects%2BDaughter;" parent="77e6c97f196da883-2" vertex="1">
          <mxGeometry x="20" y="60" width="120" height="60" as="geometry" />
        </mxCell>
        <mxCell id="QBesqkJT4bfm6jJ09nvZ-22" value="" style="edgeStyle=orthogonalEdgeStyle;rounded=0;sketch=1;hachureGap=4;jiggle=2;curveFitting=1;orthogonalLoop=1;jettySize=auto;html=1;fontFamily=Architects Daughter;fontSource=https%3A%2F%2Ffonts.googleapis.com%2Fcss%3Ffamily%3DArchitects%2BDaughter;" parent="77e6c97f196da883-2" source="QBesqkJT4bfm6jJ09nvZ-19" target="QBesqkJT4bfm6jJ09nvZ-21" edge="1">
          <mxGeometry relative="1" as="geometry" />
        </mxCell>
        <mxCell id="QBesqkJT4bfm6jJ09nvZ-19" value="&lt;span style=&quot;font-size: 8px;&quot;&gt;回调接口&lt;/span&gt;" style="rounded=1;whiteSpace=wrap;html=1;sketch=1;hachureGap=4;jiggle=2;curveFitting=1;fontFamily=Architects Daughter;fontSource=https%3A%2F%2Ffonts.googleapis.com%2Fcss%3Ffamily%3DArchitects%2BDaughter;" parent="77e6c97f196da883-2" vertex="1">
          <mxGeometry x="20" y="430" width="120" height="60" as="geometry" />
        </mxCell>
        <mxCell id="QBesqkJT4bfm6jJ09nvZ-24" value="" style="edgeStyle=orthogonalEdgeStyle;rounded=0;sketch=1;hachureGap=4;jiggle=2;curveFitting=1;orthogonalLoop=1;jettySize=auto;html=1;fontFamily=Architects Daughter;fontSource=https%3A%2F%2Ffonts.googleapis.com%2Fcss%3Ffamily%3DArchitects%2BDaughter;" parent="77e6c97f196da883-2" source="QBesqkJT4bfm6jJ09nvZ-21" target="QBesqkJT4bfm6jJ09nvZ-23" edge="1">
          <mxGeometry relative="1" as="geometry" />
        </mxCell>
        <mxCell id="QBesqkJT4bfm6jJ09nvZ-21" value="&lt;span style=&quot;font-size: 8px;&quot;&gt;回调数据存储&lt;/span&gt;" style="rounded=1;whiteSpace=wrap;html=1;sketch=1;hachureGap=4;jiggle=2;curveFitting=1;fontFamily=Architects Daughter;fontSource=https%3A%2F%2Ffonts.googleapis.com%2Fcss%3Ffamily%3DArchitects%2BDaughter;" parent="77e6c97f196da883-2" vertex="1">
          <mxGeometry x="45" y="510" width="70" height="30" as="geometry" />
        </mxCell>
        <mxCell id="QBesqkJT4bfm6jJ09nvZ-29" value="" style="edgeStyle=orthogonalEdgeStyle;rounded=0;sketch=1;hachureGap=4;jiggle=2;curveFitting=1;orthogonalLoop=1;jettySize=auto;html=1;fontFamily=Architects Daughter;fontSource=https%3A%2F%2Ffonts.googleapis.com%2Fcss%3Ffamily%3DArchitects%2BDaughter;" parent="77e6c97f196da883-2" source="QBesqkJT4bfm6jJ09nvZ-23" target="QBesqkJT4bfm6jJ09nvZ-28" edge="1">
          <mxGeometry relative="1" as="geometry" />
        </mxCell>
        <mxCell id="QBesqkJT4bfm6jJ09nvZ-23" value="&lt;span style=&quot;font-size: 8px;&quot;&gt;查询问卷详情&lt;/span&gt;" style="rounded=1;whiteSpace=wrap;html=1;sketch=1;hachureGap=4;jiggle=2;curveFitting=1;fontFamily=Architects Daughter;fontSource=https%3A%2F%2Ffonts.googleapis.com%2Fcss%3Ffamily%3DArchitects%2BDaughter;" parent="77e6c97f196da883-2" vertex="1">
          <mxGeometry x="45" y="560" width="70" height="30" as="geometry" />
        </mxCell>
        <mxCell id="QBesqkJT4bfm6jJ09nvZ-31" value="" style="edgeStyle=orthogonalEdgeStyle;rounded=0;sketch=1;hachureGap=4;jiggle=2;curveFitting=1;orthogonalLoop=1;jettySize=auto;html=1;fontFamily=Architects Daughter;fontSource=https%3A%2F%2Ffonts.googleapis.com%2Fcss%3Ffamily%3DArchitects%2BDaughter;" parent="77e6c97f196da883-2" source="QBesqkJT4bfm6jJ09nvZ-28" target="QBesqkJT4bfm6jJ09nvZ-30" edge="1">
          <mxGeometry relative="1" as="geometry" />
        </mxCell>
        <mxCell id="QBesqkJT4bfm6jJ09nvZ-28" value="&lt;span style=&quot;font-size: 8px;&quot;&gt;处理通话记录回填问卷详情&lt;/span&gt;" style="rounded=1;whiteSpace=wrap;html=1;sketch=1;hachureGap=4;jiggle=2;curveFitting=1;fontFamily=Architects Daughter;fontSource=https%3A%2F%2Ffonts.googleapis.com%2Fcss%3Ffamily%3DArchitects%2BDaughter;" parent="77e6c97f196da883-2" vertex="1">
          <mxGeometry x="45" y="610" width="70" height="30" as="geometry" />
        </mxCell>
        <mxCell id="QBesqkJT4bfm6jJ09nvZ-30" value="&lt;span style=&quot;font-size: 8px;&quot;&gt;提交问卷&lt;/span&gt;" style="rounded=1;whiteSpace=wrap;html=1;sketch=1;hachureGap=4;jiggle=2;curveFitting=1;fontFamily=Architects Daughter;fontSource=https%3A%2F%2Ffonts.googleapis.com%2Fcss%3Ffamily%3DArchitects%2BDaughter;" parent="77e6c97f196da883-2" vertex="1">
          <mxGeometry x="45" y="660" width="70" height="30" as="geometry" />
        </mxCell>
        <mxCell id="77e6c97f196da883-3" value="外呼bot系统" style="swimlane;html=1;startSize=20;" parent="77e6c97f196da883-1" vertex="1">
          <mxGeometry x="160" y="20" width="160" height="750" as="geometry" />
        </mxCell>
        <mxCell id="QBesqkJT4bfm6jJ09nvZ-10" style="edgeStyle=orthogonalEdgeStyle;rounded=0;sketch=1;hachureGap=4;jiggle=2;curveFitting=1;orthogonalLoop=1;jettySize=auto;html=1;fontFamily=Architects Daughter;fontSource=https%3A%2F%2Ffonts.googleapis.com%2Fcss%3Ffamily%3DArchitects%2BDaughter;exitX=0.5;exitY=1;exitDx=0;exitDy=0;" parent="77e6c97f196da883-3" source="QBesqkJT4bfm6jJ09nvZ-14" target="QBesqkJT4bfm6jJ09nvZ-12" edge="1">
          <mxGeometry relative="1" as="geometry">
            <mxPoint x="80" y="230" as="sourcePoint" />
            <mxPoint x="80" y="260" as="targetPoint" />
          </mxGeometry>
        </mxCell>
        <mxCell id="QBesqkJT4bfm6jJ09nvZ-14" value="&lt;span style=&quot;font-size: 8px;&quot;&gt;根据话术ID&lt;/span&gt;&lt;div style=&quot;font-size: 8px;&quot;&gt;创建外呼任务&lt;/div&gt;" style="rounded=1;whiteSpace=wrap;html=1;sketch=1;hachureGap=4;jiggle=2;curveFitting=1;fontFamily=Architects Daughter;fontSource=https%3A%2F%2Ffonts.googleapis.com%2Fcss%3Ffamily%3DArchitects%2BDaughter;" parent="77e6c97f196da883-3" vertex="1">
          <mxGeometry x="20" y="170" width="120" height="60" as="geometry" />
        </mxCell>
        <mxCell id="QBesqkJT4bfm6jJ09nvZ-12" value="&lt;span style=&quot;font-size: 8px;&quot;&gt;向任务中导入此次任务客户数据&lt;/span&gt;" style="rounded=1;whiteSpace=wrap;html=1;sketch=1;hachureGap=4;jiggle=2;curveFitting=1;fontFamily=Architects Daughter;fontSource=https%3A%2F%2Ffonts.googleapis.com%2Fcss%3Ffamily%3DArchitects%2BDaughter;" parent="77e6c97f196da883-3" vertex="1">
          <mxGeometry x="20" y="260" width="120" height="60" as="geometry" />
        </mxCell>
        <mxCell id="QBesqkJT4bfm6jJ09nvZ-17" value="&lt;span style=&quot;font-size: 8px;&quot;&gt;外呼通话记录回调&lt;/span&gt;" style="rounded=1;whiteSpace=wrap;html=1;sketch=1;hachureGap=4;jiggle=2;curveFitting=1;fontFamily=Architects Daughter;fontSource=https%3A%2F%2Ffonts.googleapis.com%2Fcss%3Ffamily%3DArchitects%2BDaughter;" parent="77e6c97f196da883-3" vertex="1">
          <mxGeometry x="20" y="430" width="120" height="60" as="geometry" />
        </mxCell>
        <mxCell id="77e6c97f196da883-4" value="调问" style="swimlane;html=1;startSize=20;" parent="77e6c97f196da883-1" vertex="1">
          <mxGeometry x="320" y="20" width="160" height="750" as="geometry" />
        </mxCell>
        <mxCell id="QBesqkJT4bfm6jJ09nvZ-26" value="&lt;span style=&quot;font-size: 8px;&quot;&gt;问卷详情&lt;/span&gt;" style="rounded=1;whiteSpace=wrap;html=1;sketch=1;hachureGap=4;jiggle=2;curveFitting=1;fontFamily=Architects Daughter;fontSource=https%3A%2F%2Ffonts.googleapis.com%2Fcss%3Ffamily%3DArchitects%2BDaughter;" parent="77e6c97f196da883-4" vertex="1">
          <mxGeometry x="45" y="560" width="70" height="30" as="geometry" />
        </mxCell>
        <mxCell id="QBesqkJT4bfm6jJ09nvZ-33" value="&lt;span style=&quot;font-size: 8px;&quot;&gt;提交问卷&lt;/span&gt;" style="rounded=1;whiteSpace=wrap;html=1;sketch=1;hachureGap=4;jiggle=2;curveFitting=1;fontFamily=Architects Daughter;fontSource=https%3A%2F%2Ffonts.googleapis.com%2Fcss%3Ffamily%3DArchitects%2BDaughter;" parent="77e6c97f196da883-4" vertex="1">
          <mxGeometry x="45" y="660" width="70" height="30" as="geometry" />
        </mxCell>
        <mxCell id="QBesqkJT4bfm6jJ09nvZ-36" style="edgeStyle=orthogonalEdgeStyle;rounded=0;sketch=1;hachureGap=4;jiggle=2;curveFitting=1;orthogonalLoop=1;jettySize=auto;html=1;exitX=0.25;exitY=1;exitDx=0;exitDy=0;entryX=0.75;entryY=1;entryDx=0;entryDy=0;fontFamily=Architects Daughter;fontSource=https%3A%2F%2Ffonts.googleapis.com%2Fcss%3Ffamily%3DArchitects%2BDaughter;" parent="77e6c97f196da883-4" source="QBesqkJT4bfm6jJ09nvZ-33" target="QBesqkJT4bfm6jJ09nvZ-33" edge="1">
          <mxGeometry relative="1" as="geometry">
            <Array as="points">
              <mxPoint x="63" y="710" />
              <mxPoint x="97" y="710" />
            </Array>
          </mxGeometry>
        </mxCell>
        <mxCell id="QBesqkJT4bfm6jJ09nvZ-37" value="&lt;font style=&quot;font-size: 7px;&quot;&gt;风险标签相关逻辑&lt;/font&gt;" style="edgeLabel;html=1;align=center;verticalAlign=middle;resizable=0;points=[];sketch=1;hachureGap=4;jiggle=2;curveFitting=1;fontFamily=Architects Daughter;fontSource=https%3A%2F%2Ffonts.googleapis.com%2Fcss%3Ffamily%3DArchitects%2BDaughter;fontSize=7;" parent="QBesqkJT4bfm6jJ09nvZ-36" vertex="1" connectable="0">
          <mxGeometry relative="1" as="geometry">
            <mxPoint y="10" as="offset" />
          </mxGeometry>
        </mxCell>
        <mxCell id="QBesqkJT4bfm6jJ09nvZ-4" style="edgeStyle=orthogonalEdgeStyle;rounded=0;sketch=1;hachureGap=4;jiggle=2;curveFitting=1;orthogonalLoop=1;jettySize=auto;html=1;entryX=0;entryY=0.5;entryDx=0;entryDy=0;fontFamily=Architects Daughter;fontSource=https%3A%2F%2Ffonts.googleapis.com%2Fcss%3Ffamily%3DArchitects%2BDaughter;" parent="77e6c97f196da883-1" source="QBesqkJT4bfm6jJ09nvZ-3" target="QBesqkJT4bfm6jJ09nvZ-14" edge="1">
          <mxGeometry relative="1" as="geometry">
            <mxPoint x="190" y="220" as="targetPoint" />
          </mxGeometry>
        </mxCell>
        <mxCell id="QBesqkJT4bfm6jJ09nvZ-6" style="edgeStyle=orthogonalEdgeStyle;rounded=0;sketch=1;hachureGap=4;jiggle=2;curveFitting=1;orthogonalLoop=1;jettySize=auto;html=1;entryX=1;entryY=0;entryDx=0;entryDy=27.5;entryPerimeter=0;fontFamily=Architects Daughter;fontSource=https%3A%2F%2Ffonts.googleapis.com%2Fcss%3Ffamily%3DArchitects%2BDaughter;" parent="77e6c97f196da883-1" source="QBesqkJT4bfm6jJ09nvZ-12" target="QBesqkJT4bfm6jJ09nvZ-5" edge="1">
          <mxGeometry relative="1" as="geometry">
            <mxPoint x="240" y="340" as="sourcePoint" />
            <Array as="points">
              <mxPoint x="240" y="373" />
              <mxPoint x="110" y="373" />
            </Array>
          </mxGeometry>
        </mxCell>
        <mxCell id="QBesqkJT4bfm6jJ09nvZ-11" value="任务ID&lt;div&gt;未能导入客户集合&lt;/div&gt;&lt;div&gt;...&lt;/div&gt;" style="edgeLabel;html=1;align=center;verticalAlign=middle;resizable=0;points=[];sketch=1;hachureGap=4;jiggle=2;curveFitting=1;fontFamily=Architects Daughter;fontSource=https%3A%2F%2Ffonts.googleapis.com%2Fcss%3Ffamily%3DArchitects%2BDaughter;" parent="QBesqkJT4bfm6jJ09nvZ-6" vertex="1" connectable="0">
          <mxGeometry x="0.0747" y="2" relative="1" as="geometry">
            <mxPoint x="25" y="25" as="offset" />
          </mxGeometry>
        </mxCell>
        <mxCell id="QBesqkJT4bfm6jJ09nvZ-20" value="" style="edgeStyle=orthogonalEdgeStyle;rounded=0;sketch=1;hachureGap=4;jiggle=2;curveFitting=1;orthogonalLoop=1;jettySize=auto;html=1;fontFamily=Architects Daughter;fontSource=https%3A%2F%2Ffonts.googleapis.com%2Fcss%3Ffamily%3DArchitects%2BDaughter;" parent="77e6c97f196da883-1" source="QBesqkJT4bfm6jJ09nvZ-17" target="QBesqkJT4bfm6jJ09nvZ-19" edge="1">
          <mxGeometry relative="1" as="geometry" />
        </mxCell>
        <mxCell id="QBesqkJT4bfm6jJ09nvZ-27" style="edgeStyle=orthogonalEdgeStyle;rounded=0;sketch=1;hachureGap=4;jiggle=2;curveFitting=1;orthogonalLoop=1;jettySize=auto;html=1;fontFamily=Architects Daughter;fontSource=https%3A%2F%2Ffonts.googleapis.com%2Fcss%3Ffamily%3DArchitects%2BDaughter;shape=link;" parent="77e6c97f196da883-1" source="QBesqkJT4bfm6jJ09nvZ-23" target="QBesqkJT4bfm6jJ09nvZ-26" edge="1">
          <mxGeometry relative="1" as="geometry" />
        </mxCell>
        <mxCell id="QBesqkJT4bfm6jJ09nvZ-34" value="" style="edgeStyle=orthogonalEdgeStyle;rounded=0;sketch=1;hachureGap=4;jiggle=2;curveFitting=1;orthogonalLoop=1;jettySize=auto;html=1;fontFamily=Architects Daughter;fontSource=https%3A%2F%2Ffonts.googleapis.com%2Fcss%3Ffamily%3DArchitects%2BDaughter;shape=link;" parent="77e6c97f196da883-1" source="QBesqkJT4bfm6jJ09nvZ-30" target="QBesqkJT4bfm6jJ09nvZ-33" edge="1">
          <mxGeometry relative="1" as="geometry" />
        </mxCell>
      </root>
    </mxGraphModel>
  </diagram>
</mxfile>
